<svg width="44" height="43" viewBox="0 0 44 43" fill="none" xmlns="http://www.w3.org/2000/svg">
<path d="M42.1531 9.88862L37.4203 9.80501L35.0204 5.92511L33.833 10.4321L28.7156 11.3101L33.3648 13.2752L33.7829 13.4508L32.7962 17.7153L35.6894 15.1482L40.3887 17.7153L38.4906 12.5393L42.1531 9.88862Z" fill="#E43A12"/>
<path d="M6.13697 6.7699L9.37305 17.9291L1.84058 26.4658L13.5021 26.0195L19.0816 37.625L20.9228 25.3499V24.234L31.8031 23.5087L23.6011 18.4312L26.2792 5.375L15.12 13.6328L6.13697 6.7699Z" fill="#E43A12"/>
<path d="M11.3348 39.8086L9.63113 36.9371L11.0868 34.0577L7.92744 35.0095L5.52788 32.25L6.06377 35.7773L6.11179 36.0893L3.18433 37.0811L5.79183 37.8809L5.99179 41.6562L8.39134 38.6088L11.3348 39.8086Z" fill="#E43A12"/>
<path d="M29.7786 29.9905L30.5793 32.7516L28.7156 34.8639L31.601 34.7534L32.9816 37.625L33.3129 34.5187V34.2426L36.005 34.0493L33.9756 32.8068L34.6382 29.5625L31.8771 31.6196L29.7786 29.9905Z" fill="#E43A12"/>
</svg>
